<?xml version="1.0" encoding="UTF-8" standalone="no"?>
<!-- Created with Inkscape (http://www.inkscape.org/) -->

<svg
   xmlns:ns0="http://www.iki.fi/pav/software/textext/"
   xmlns:dc="http://purl.org/dc/elements/1.1/"
   xmlns:cc="http://creativecommons.org/ns#"
   xmlns:rdf="http://www.w3.org/1999/02/22-rdf-syntax-ns#"
   xmlns:svg="http://www.w3.org/2000/svg"
   xmlns="http://www.w3.org/2000/svg"
   xmlns:xlink="http://www.w3.org/1999/xlink"
   xmlns:sodipodi="http://sodipodi.sourceforge.net/DTD/sodipodi-0.dtd"
   xmlns:inkscape="http://www.inkscape.org/namespaces/inkscape"
   width="599.85809"
   height="508.73434"
   id="svg3265"
   version="1.1"
   inkscape:version="0.48.0 r9654"
   sodipodi:docname="myon_ww.svg">
  <sodipodi:namedview
     id="base"
     pagecolor="#ffffff"
     bordercolor="#666666"
     borderopacity="1.0"
     inkscape:pageopacity="0.0"
     inkscape:pageshadow="2"
     inkscape:zoom="1"
     inkscape:cx="291.24169"
     inkscape:cy="247.12449"
     inkscape:document-units="px"
     inkscape:current-layer="layer1"
     showgrid="false"
     inkscape:window-width="1920"
     inkscape:window-height="1030"
     inkscape:window-x="0"
     inkscape:window-y="0"
     inkscape:window-maximized="1"
     fit-margin-top="0"
     fit-margin-left="0"
     fit-margin-right="0"
     fit-margin-bottom="0" />
  <defs
     id="defs3267" />
  <metadata
     id="metadata3270">
    <rdf:RDF>
      <cc:Work
         rdf:about="">
        <dc:format>image/svg+xml</dc:format>
        <dc:type
           rdf:resource="http://purl.org/dc/dcmitype/StillImage" />
        <dc:title />
      </cc:Work>
    </rdf:RDF>
  </metadata>
  <g
     inkscape:label="Ebene 1"
     inkscape:groupmode="layer"
     id="layer1"
     transform="translate(144.71279,-548.89301)">
    <path
       sodipodi:nodetypes="cc"
       style="fill:none;stroke:#000000;stroke-width:5;stroke-linecap:butt;stroke-linejoin:miter;stroke-miterlimit:4;stroke-opacity:1;stroke-dasharray:none"
       d="m -125.10264,1041.352 c 0,-7.6724 0,-439.48234 0,-439.48234"
       id="path3284"
       inkscape:connector-curvature="0" />
    <g
       transform="matrix(5.783639,0,0,5.783639,-1438.3184,-191.49953)"
       ns0:text="$T$"
       ns0:preamble="/home/jalmer/data/stick_school/school_1011/ph_10/presentation/preamble.txt"
       id="g4061">
      <defs
         id="defs4063">
        <g
           id="g4065">
          <symbol
             style="overflow:visible"
             overflow="visible"
             id="textext-172ef185-0">
            <path
               inkscape:connector-curvature="0"
               style="stroke:none"
               d=""
               id="path4068" />
          </symbol>
          <symbol
             style="overflow:visible"
             overflow="visible"
             id="textext-172ef185-1">
            <path
               inkscape:connector-curvature="0"
               style="stroke:none"
               d="m 4.25,-6.046875 c 0.078125,-0.28125 0.109375,-0.34375 0.234375,-0.375 0.09375,-0.015625 0.421875,-0.015625 0.625,-0.015625 1.015625,0 1.453125,0.03125 1.453125,0.8125 0,0.15625 -0.03125,0.546875 -0.078125,0.796875 0,0.046875 -0.03125,0.15625 -0.03125,0.1875 0,0.0625 0.03125,0.140625 0.125,0.140625 0.109375,0 0.125,-0.078125 0.15625,-0.234375 L 7,-6.46875 C 7.015625,-6.515625 7.015625,-6.609375 7.015625,-6.640625 7.015625,-6.75 6.921875,-6.75 6.75,-6.75 l -5.53125,0 c -0.234375,0 -0.25,0.015625 -0.328125,0.203125 l -0.59375,1.75 c 0,0.015625 -0.0625,0.15625 -0.0625,0.1875 0,0.046875 0.0625,0.109375 0.125,0.109375 0.09375,0 0.109375,-0.0625 0.171875,-0.21875 C 1.0625,-6.265625 1.328125,-6.4375 2.796875,-6.4375 l 0.390625,0 c 0.28125,0 0.28125,0.03125 0.28125,0.125 0,0.046875 -0.03125,0.171875 -0.046875,0.203125 L 2.09375,-0.78125 C 2,-0.421875 1.96875,-0.3125 0.90625,-0.3125 c -0.359375,0 -0.421875,0 -0.421875,0.1875 C 0.484375,0 0.59375,0 0.65625,0 c 0.265625,0 0.546875,-0.015625 0.8125,-0.015625 0.28125,0 0.578125,-0.015625 0.859375,-0.015625 0.28125,0 0.546875,0.015625 0.828125,0.015625 C 3.4375,-0.015625 3.734375,0 4.015625,0 c 0.09375,0 0.21875,0 0.21875,-0.203125 0,-0.109375 -0.078125,-0.109375 -0.34375,-0.109375 -0.234375,0 -0.375,0 -0.625,-0.015625 -0.296875,-0.03125 -0.375,-0.0625 -0.375,-0.21875 0,-0.015625 0,-0.0625 0.046875,-0.203125 L 4.25,-6.046875 z m 0,0"
               id="path4071" />
          </symbol>
        </g>
      </defs>
      <g
         id="textext-172ef185-2">
        <g
           style="fill:#000000;fill-opacity:1"
           id="g4074">
          <use
             height="1052.3622"
             width="744.09448"
             xlink:href="#textext-172ef185-1"
             x="223.43201"
             y="134.765"
             id="use4076" />
        </g>
      </g>
    </g>
    <path
       inkscape:connector-curvature="0"
       id="rect4101"
       d="m -125.13388,595.56841 -13.65625,22.945 c -0.0151,0.0254 -0.0151,0.0796 0,0.10501 l 1.90625,3.15034 11.75,-19.74215 c 0.0151,-0.0254 0.0474,-0.0254 0.0625,0 l 11.75,19.74215 1.90624,-3.15034 c 0.0151,-0.0254 0.0151,-0.0796 0,-0.10501 l -13.65624,-22.945 c -0.0151,-0.0254 -0.0474,-0.0254 -0.0625,0 z"
       style="fill:#000000;fill-opacity:1;fill-rule:nonzero;stroke:none" />
    <g
       style="stroke-width:6;stroke-miterlimit:4;stroke-dasharray:none"
       transform="matrix(0.90952312,-0.41565333,0.41565333,0.90952312,-325.15272,108.53144)"
       id="g4132">
      <path
         style="fill:none;stroke:#000000;stroke-width:6;stroke-linecap:butt;stroke-linejoin:miter;stroke-miterlimit:4;stroke-opacity:1;stroke-dasharray:none"
         d="m 76.367532,802.75349 c 0,-3.53553 0,-205.06097 0,-205.06097"
         id="path4108"
         inkscape:connector-curvature="0" />
      <path
         inkscape:connector-curvature="0"
         id="path4110"
         d="m 76.336287,687.13235 -13.65625,22.945 c -0.0151,0.0254 -0.0151,0.0796 0,0.10501 l 1.90625,3.15035 11.75,-19.74216 c 0.0151,-0.0254 0.0474,-0.0254 0.0625,0 l 11.75,19.74216 1.90624,-3.15035 c 0.0151,-0.0254 0.0151,-0.0796 0,-0.10501 l -13.65624,-22.945 c -0.0151,-0.0254 -0.0474,-0.0254 -0.0625,0 z"
         style="fill:#000000;fill-opacity:1;fill-rule:nonzero;stroke:none" />
    </g>
    <g
       style="stroke-width:6;stroke-miterlimit:4;stroke-dasharray:none"
       transform="matrix(0.8449085,0.53491086,-0.53491086,0.8449085,433.66244,97.074968)"
       id="g4136">
      <path
         inkscape:connector-curvature="0"
         id="path4112"
         d="m 79.195959,1045.2911 c 0,-3.5356 0,-255.97267 0,-255.97267"
         style="fill:none;stroke:#000000;stroke-width:6;stroke-linecap:butt;stroke-linejoin:miter;stroke-miterlimit:4;stroke-opacity:1;stroke-dasharray:none"
         sodipodi:nodetypes="cc" />
      <path
         style="fill:#000000;fill-opacity:1;fill-rule:nonzero;stroke:none"
         d="m 79.164714,904.21413 -13.65625,22.945 c -0.0151,0.0254 -0.0151,0.0796 0,0.10501 l 1.90625,3.15035 11.75,-19.74216 c 0.0151,-0.0254 0.0474,-0.0254 0.0625,0 l 11.75,19.74216 1.90624,-3.15035 c 0.0151,-0.0254 0.0151,-0.0796 0,-0.10501 l -13.65624,-22.945 c -0.0151,-0.0254 -0.0474,-0.0254 -0.0625,0 z"
         id="path4114"
         inkscape:connector-curvature="0" />
    </g>
    <g
       style="stroke-width:6;stroke-miterlimit:4;stroke-dasharray:none"
       transform="matrix(-0.85363953,-0.52086424,0.52086424,-0.85363953,62.127052,1327.6859)"
       id="g4128">
      <path
         inkscape:connector-curvature="0"
         id="path4116"
         d="m 159.09902,706.94052 c 0,-3.53553 0,-146.37111 0,-146.37111"
         style="fill:none;stroke:#000000;stroke-width:6;stroke-linecap:butt;stroke-linejoin:miter;stroke-miterlimit:4;stroke-opacity:1;stroke-dasharray:none"
         sodipodi:nodetypes="cc" />
      <path
         style="fill:#000000;fill-opacity:1;fill-rule:nonzero;stroke:none"
         d="m 159.06778,620.66431 -13.65625,22.945 c -0.0151,0.0254 -0.0151,0.0796 0,0.10501 l 1.90625,3.15035 11.75,-19.74216 c 0.0151,-0.0254 0.0474,-0.0254 0.0625,0 l 11.75,19.74216 1.90624,-3.15035 c 0.0151,-0.0254 0.0151,-0.0796 0,-0.10501 l -13.65624,-22.945 c -0.0151,-0.0254 -0.0474,-0.0254 -0.0625,0 z"
         id="path4118"
         inkscape:connector-curvature="0" />
    </g>
    <g
       style="stroke-width:6;stroke-miterlimit:4;stroke-dasharray:none"
       transform="matrix(0.26676472,0.96376168,-0.96376168,0.26676472,1051.0832,232.92053)"
       id="g4124">
      <path
         sodipodi:nodetypes="cc"
         style="fill:none;stroke:#000000;stroke-width:6;stroke-linecap:butt;stroke-linejoin:miter;stroke-miterlimit:4;stroke-opacity:1;stroke-dasharray:none"
         d="m 292.03509,945.94261 c 0,-3.53553 0,-194.45437 0,-194.45437"
         id="path4120"
         inkscape:connector-curvature="0" />
      <path
         inkscape:connector-curvature="0"
         id="path4122"
         d="m 292.00385,835.62477 -13.65625,22.945 c -0.0151,0.0254 -0.0151,0.0796 0,0.10501 l 1.90625,3.15035 11.75,-19.74216 c 0.0151,-0.0254 0.0474,-0.0254 0.0625,0 l 11.75,19.74216 1.90624,-3.15035 c 0.0151,-0.0254 0.0151,-0.0796 0,-0.10501 l -13.65624,-22.945 c -0.0151,-0.0254 -0.0474,-0.0254 -0.0625,0 z"
         style="fill:#000000;fill-opacity:1;fill-rule:nonzero;stroke:none"
         sodipodi:nodetypes="ccccccccccc" />
    </g>
    <g
       style="stroke-width:6;stroke-miterlimit:4;stroke-dasharray:none"
       transform="matrix(0.27826318,0.96050487,-0.96050487,0.27826318,712.83891,457.50535)"
       id="g4140">
      <path
         sodipodi:nodetypes="cc"
         style="fill:none;stroke:#000000;stroke-width:6;stroke-linecap:butt;stroke-linejoin:miter;stroke-miterlimit:4;stroke-opacity:1;stroke-dasharray:17.99999998, 5.99999999;stroke-dashoffset:0"
         d="m 159.09902,706.94052 c 0,-3.53553 0,-146.37111 0,-146.37111"
         id="path4142"
         inkscape:connector-curvature="0" />
      <path
         inkscape:connector-curvature="0"
         id="path4144"
         d="m 159.06778,620.66431 -13.65625,22.945 c -0.0151,0.0254 -0.0151,0.0796 0,0.10501 l 1.90625,3.15035 11.75,-19.74216 c 0.0151,-0.0254 0.0474,-0.0254 0.0625,0 l 11.75,19.74216 1.90624,-3.15035 c 0.0151,-0.0254 0.0151,-0.0796 0,-0.10501 l -13.65624,-22.945 c -0.0151,-0.0254 -0.0474,-0.0254 -0.0625,0 z"
         style="fill:#000000;fill-opacity:1;fill-rule:nonzero;stroke:none" />
    </g>
    <g
       id="g4218"
       transform="matrix(4.4901794,0,0,4.4901794,-1033.4691,-8.3632593)"
       ns0:preamble="/home/jalmer/data/stick_school/school_1011/ph_10/presentation/preamble.txt"
       ns0:text="$\\nu_\\mu$">
      <defs
         id="defs4220">
        <g
           id="g4222">
          <symbol
             id="textext-821bfc92-0"
             overflow="visible"
             style="overflow:visible">
            <path
               id="path4225"
               d=""
               style="stroke:none"
               inkscape:connector-curvature="0" />
          </symbol>
          <symbol
             id="textext-821bfc92-1"
             overflow="visible"
             style="overflow:visible">
            <path
               id="path4228"
               d="m 2.234375,-4.296875 c 0,-0.015625 0,-0.109375 -0.125,-0.109375 -0.234375,0 -0.96875,0.078125 -1.21875,0.09375 -0.078125,0.015625 -0.1875,0.03125 -0.1875,0.203125 0,0.125 0.078125,0.125 0.234375,0.125 0.484375,0 0.5,0.0625 0.5,0.171875 0,0.0625 -0.125,0.53125 -0.1875,0.796875 L 0.640625,-0.5625 C 0.59375,-0.421875 0.53125,-0.140625 0.53125,-0.125 0.53125,-0.015625 0.625,0 0.6875,0 l 0.140625,0 c 0.703125,-0.125 1.78125,-0.515625 2.8125,-1.46875 1.3125,-1.21875 1.578125,-2.578125 1.578125,-2.671875 0,-0.171875 -0.109375,-0.265625 -0.28125,-0.265625 -0.078125,0 -0.3125,0.046875 -0.390625,0.328125 -0.640625,2.265625 -2.15625,3.375 -3.296875,3.75 l 0.984375,-3.96875 z m 0,0"
               style="stroke:none"
               inkscape:connector-curvature="0" />
          </symbol>
          <symbol
             id="textext-821bfc92-2"
             overflow="visible"
             style="overflow:visible">
            <path
               id="path4231"
               d=""
               style="stroke:none"
               inkscape:connector-curvature="0" />
          </symbol>
          <symbol
             id="textext-821bfc92-3"
             overflow="visible"
             style="overflow:visible">
            <path
               id="path4234"
               d="M 0.375,1.125 C 0.34375,1.21875 0.34375,1.265625 0.34375,1.265625 c 0,0.15625 0.125,0.21875 0.234375,0.21875 0.265625,0 0.3125,-0.21875 0.34375,-0.34375 0.015625,-0.03125 0.15625,-0.59375 0.3125,-1.265625 0.21875,0.140625 0.5,0.1875 0.75,0.1875 0.59375,0 0.984375,-0.484375 1,-0.5 0.140625,0.484375 0.625,0.5 0.71875,0.5 0.25,0 0.421875,-0.140625 0.5625,-0.359375 C 4.40625,-0.578125 4.5,-0.96875 4.5,-1 c 0,-0.09375 -0.09375,-0.09375 -0.109375,-0.09375 -0.09375,0 -0.109375,0.03125 -0.15625,0.21875 -0.078125,0.34375 -0.21875,0.75 -0.5,0.75 C 3.546875,-0.125 3.5,-0.28125 3.5,-0.46875 c 0,-0.109375 0.046875,-0.375 0.109375,-0.546875 0.046875,-0.1875 0.109375,-0.46875 0.140625,-0.625 l 0.171875,-0.625 C 3.953125,-2.4375 4.03125,-2.75 4.03125,-2.78125 4.03125,-2.921875 3.921875,-3 3.8125,-3 3.734375,-3 3.59375,-2.96875 3.515625,-2.84375 3.5,-2.796875 3.4375,-2.578125 3.40625,-2.4375 l -0.140625,0.578125 -0.21875,0.875 C 3,-0.8125 3,-0.796875 2.9375,-0.703125 2.71875,-0.390625 2.40625,-0.125 2.015625,-0.125 1.4375,-0.125 1.4375,-0.625 1.4375,-0.75 c 0,-0.171875 0.03125,-0.265625 0.125,-0.640625 0.0625,-0.3125 0.078125,-0.359375 0.15625,-0.625 L 1.8125,-2.40625 c 0.03125,-0.15625 0.109375,-0.421875 0.109375,-0.4375 0,-0.125 -0.109375,-0.234375 -0.25,-0.234375 -0.25,0 -0.3125,0.25 -0.328125,0.328125 L 0.375,1.125 z m 0,0"
               style="stroke:none"
               inkscape:connector-curvature="0" />
          </symbol>
        </g>
      </defs>
      <g
         id="textext-821bfc92-4">
        <g
           id="g4237"
           style="fill:#000000;fill-opacity:1">
          <use
             id="use4239"
             y="134.765"
             x="223.43201"
             xlink:href="#textext-821bfc92-1"
             width="744.09448"
             height="1052.3622" />
        </g>
        <g
           id="g4241"
           style="fill:#000000;fill-opacity:1">
          <use
             id="use4243"
             y="136.259"
             x="228.353"
             xlink:href="#textext-821bfc92-3"
             width="744.09448"
             height="1052.3622" />
        </g>
      </g>
    </g>
    <g
       ns0:text="$\\overline{\\nu}_e$"
       ns0:preamble="/home/jalmer/data/stick_school/school_1011/ph_10/presentation/preamble.txt"
       transform="matrix(4.4901794,0,0,4.4901794,-706.55741,19.755334)"
       id="g4373">
      <defs
         id="defs4375">
        <g
           id="g4377">
          <symbol
             overflow="visible"
             id="textext-54812970-0"
             style="overflow:visible">
            <path
               style="stroke:none"
               d=""
               id="path4380"
               inkscape:connector-curvature="0" />
          </symbol>
          <symbol
             overflow="visible"
             id="textext-54812970-1"
             style="overflow:visible">
            <path
               style="stroke:none"
               d="m 2.234375,-4.296875 c 0,-0.015625 0,-0.109375 -0.125,-0.109375 -0.234375,0 -0.96875,0.078125 -1.21875,0.09375 -0.078125,0.015625 -0.1875,0.03125 -0.1875,0.203125 0,0.125 0.078125,0.125 0.234375,0.125 0.484375,0 0.5,0.0625 0.5,0.171875 0,0.0625 -0.125,0.53125 -0.1875,0.796875 L 0.640625,-0.5625 C 0.59375,-0.421875 0.53125,-0.140625 0.53125,-0.125 0.53125,-0.015625 0.625,0 0.6875,0 l 0.140625,0 c 0.703125,-0.125 1.78125,-0.515625 2.8125,-1.46875 1.3125,-1.21875 1.578125,-2.578125 1.578125,-2.671875 0,-0.171875 -0.109375,-0.265625 -0.28125,-0.265625 -0.078125,0 -0.3125,0.046875 -0.390625,0.328125 -0.640625,2.265625 -2.15625,3.375 -3.296875,3.75 l 0.984375,-3.96875 z m 0,0"
               id="path4383"
               inkscape:connector-curvature="0" />
          </symbol>
          <symbol
             overflow="visible"
             id="textext-54812970-2"
             style="overflow:visible">
            <path
               style="stroke:none"
               d=""
               id="path4386"
               inkscape:connector-curvature="0" />
          </symbol>
          <symbol
             overflow="visible"
             id="textext-54812970-3"
             style="overflow:visible">
            <path
               style="stroke:none"
               d="m 1.5625,-1.59375 c 0.1875,0 0.75,-0.015625 1.125,-0.140625 0.515625,-0.1875 0.609375,-0.515625 0.609375,-0.71875 0,-0.390625 -0.390625,-0.625 -0.859375,-0.625 -0.84375,0 -1.96875,0.640625 -1.96875,1.84375 0,0.703125 0.4375,1.296875 1.25,1.296875 1.1875,0 1.734375,-0.6875 1.734375,-0.78125 0,-0.046875 -0.0625,-0.125 -0.125,-0.125 -0.03125,0 -0.046875,0.015625 -0.109375,0.078125 C 2.671875,-0.125 1.859375,-0.125 1.734375,-0.125 1.3125,-0.125 1.03125,-0.40625 1.03125,-0.96875 c 0,-0.09375 0,-0.234375 0.09375,-0.625 l 0.4375,0 z M 1.171875,-1.78125 C 1.46875,-2.796875 2.234375,-2.875 2.4375,-2.875 2.734375,-2.875 3,-2.71875 3,-2.453125 3,-1.78125 1.8125,-1.78125 1.515625,-1.78125 l -0.34375,0 z m 0,0"
               id="path4389"
               inkscape:connector-curvature="0" />
          </symbol>
        </g>
      </defs>
      <g
         id="textext-54812970-4">
        <path
           style="fill:none;stroke:#000000;stroke-width:0.398;stroke-linecap:butt;stroke-linejoin:miter;stroke-miterlimit:10;stroke-opacity:1"
           d="m 0.00159375,-0.00103125 5.55468725,0"
           transform="matrix(1,0,0,-1,223.432,129.081)"
           id="path4392"
           inkscape:connector-curvature="0" />
        <g
           style="fill:#000000;fill-opacity:1"
           id="g4394">
          <use
             xlink:href="#textext-54812970-1"
             x="223.43201"
             y="134.765"
             id="use4396"
             width="744.09448"
             height="1052.3622" />
        </g>
        <g
           style="fill:#000000;fill-opacity:1"
           id="g4398">
          <use
             xlink:href="#textext-54812970-3"
             x="228.98801"
             y="136.259"
             id="use4400"
             width="744.09448"
             height="1052.3622" />
        </g>
      </g>
    </g>
    <g
       id="g4564"
       transform="matrix(4.4901794,0,0,4.4901794,-1071.3382,442.82639)"
       ns0:preamble="/home/jalmer/data/stick_school/school_1011/ph_10/presentation/preamble.txt"
       ns0:text="$\\mu^-$">
      <defs
         id="defs4566">
        <g
           id="g4568">
          <symbol
             id="textext-ccc3c27a-0"
             overflow="visible"
             style="overflow:visible">
            <path
               id="path4571"
               d=""
               style="stroke:none"
               inkscape:connector-curvature="0" />
          </symbol>
          <symbol
             id="textext-ccc3c27a-1"
             overflow="visible"
             style="overflow:visible">
            <path
               id="path4574"
               d="m 2.296875,-3.5 c 0.0625,-0.203125 0.15625,-0.59375 0.15625,-0.640625 0,-0.171875 -0.125,-0.265625 -0.296875,-0.265625 -0.015625,0 -0.296875,0.015625 -0.390625,0.359375 l -1.4375,5.765625 c -0.03125,0.125 -0.03125,0.140625 -0.03125,0.171875 0,0.140625 0.109375,0.265625 0.28125,0.265625 0.203125,0 0.328125,-0.1875 0.34375,-0.21875 C 0.96875,1.859375 1.09375,1.328125 1.46875,-0.203125 1.796875,0.0625 2.25,0.109375 2.4375,0.109375 c 0.703125,0 1.09375,-0.453125 1.328125,-0.734375 0.09375,0.453125 0.46875,0.734375 0.90625,0.734375 0.34375,0 0.578125,-0.234375 0.734375,-0.546875 0.171875,-0.359375 0.296875,-0.96875 0.296875,-0.984375 0,-0.109375 -0.09375,-0.109375 -0.125,-0.109375 -0.09375,0 -0.109375,0.046875 -0.140625,0.1875 -0.15625,0.640625 -0.34375,1.234375 -0.75,1.234375 -0.265625,0 -0.296875,-0.265625 -0.296875,-0.453125 0,-0.21875 0.109375,-0.6875 0.1875,-1.046875 L 4.859375,-2.6875 C 4.890625,-2.828125 5,-3.203125 5.03125,-3.359375 5.078125,-3.59375 5.1875,-3.96875 5.1875,-4.03125 c 0,-0.171875 -0.140625,-0.265625 -0.296875,-0.265625 -0.046875,0 -0.3125,0.015625 -0.390625,0.34375 l -0.46875,1.875 c -0.109375,0.5 -0.21875,0.90625 -0.25,1.015625 -0.015625,0.046875 -0.484375,0.953125 -1.296875,0.953125 -0.5,0 -0.734375,-0.328125 -0.734375,-0.875 0,-0.28125 0.0625,-0.5625 0.140625,-0.84375 L 2.296875,-3.5 z m 0,0"
               style="stroke:none"
               inkscape:connector-curvature="0" />
          </symbol>
          <symbol
             id="textext-ccc3c27a-2"
             overflow="visible"
             style="overflow:visible">
            <path
               id="path4577"
               d=""
               style="stroke:none"
               inkscape:connector-curvature="0" />
          </symbol>
          <symbol
             id="textext-ccc3c27a-3"
             overflow="visible"
             style="overflow:visible">
            <path
               id="path4580"
               d="m 5.1875,-1.578125 c 0.109375,0 0.28125,0 0.28125,-0.15625 0,-0.1875 -0.171875,-0.1875 -0.28125,-0.1875 l -4.15625,0 c -0.109375,0 -0.28125,0 -0.28125,0.171875 0,0.171875 0.15625,0.171875 0.28125,0.171875 l 4.15625,0 z m 0,0"
               style="stroke:none"
               inkscape:connector-curvature="0" />
          </symbol>
        </g>
      </defs>
      <g
         id="textext-ccc3c27a-4">
        <g
           id="g4583"
           style="fill:#000000;fill-opacity:1">
          <use
             id="use4585"
             y="134.765"
             x="223.43201"
             xlink:href="#textext-ccc3c27a-1"
             width="744.09448"
             height="1052.3622" />
        </g>
        <g
           id="g4587"
           style="fill:#000000;fill-opacity:1">
          <use
             id="use4589"
             y="131.14999"
             x="229.435"
             xlink:href="#textext-ccc3c27a-3"
             width="744.09448"
             height="1052.3622" />
        </g>
      </g>
    </g>
    <g
       ns0:text="$e^-$"
       ns0:preamble="/home/jalmer/data/stick_school/school_1011/ph_10/presentation/preamble.txt"
       transform="matrix(4.4901794,0,0,4.4901794,-593.49008,118.70407)"
       id="g4785">
      <defs
         id="defs4787">
        <g
           id="g4789">
          <symbol
             overflow="visible"
             id="textext-5fd19373-0"
             style="overflow:visible">
            <path
               style="stroke:none"
               d=""
               id="path4792"
               inkscape:connector-curvature="0" />
          </symbol>
          <symbol
             overflow="visible"
             id="textext-5fd19373-1"
             style="overflow:visible">
            <path
               style="stroke:none"
               d="m 1.859375,-2.296875 c 0.296875,0 1.03125,-0.03125 1.53125,-0.234375 0.703125,-0.296875 0.75,-0.890625 0.75,-1.03125 0,-0.4375 -0.375,-0.84375 -1.0625,-0.84375 -1.109375,0 -2.625,0.96875 -2.625,2.71875 0,1.015625 0.59375,1.796875 1.578125,1.796875 1.421875,0 2.25,-1.0625 2.25,-1.171875 0,-0.0625 -0.046875,-0.140625 -0.109375,-0.140625 -0.0625,0 -0.078125,0.03125 -0.140625,0.109375 -0.78125,0.984375 -1.875,0.984375 -1.984375,0.984375 -0.78125,0 -0.875,-0.84375 -0.875,-1.15625 0,-0.125 0.015625,-0.421875 0.15625,-1.03125 l 0.53125,0 z m -0.46875,-0.21875 C 1.78125,-4.03125 2.8125,-4.1875 3.078125,-4.1875 c 0.453125,0 0.734375,0.296875 0.734375,0.625 0,1.046875 -1.59375,1.046875 -2.015625,1.046875 l -0.40625,0 z m 0,0"
               id="path4795"
               inkscape:connector-curvature="0" />
          </symbol>
          <symbol
             overflow="visible"
             id="textext-5fd19373-2"
             style="overflow:visible">
            <path
               style="stroke:none"
               d=""
               id="path4798"
               inkscape:connector-curvature="0" />
          </symbol>
          <symbol
             overflow="visible"
             id="textext-5fd19373-3"
             style="overflow:visible">
            <path
               style="stroke:none"
               d="m 5.1875,-1.578125 c 0.109375,0 0.28125,0 0.28125,-0.15625 0,-0.1875 -0.171875,-0.1875 -0.28125,-0.1875 l -4.15625,0 c -0.109375,0 -0.28125,0 -0.28125,0.171875 0,0.171875 0.15625,0.171875 0.28125,0.171875 l 4.15625,0 z m 0,0"
               id="path4801"
               inkscape:connector-curvature="0" />
          </symbol>
        </g>
      </defs>
      <g
         id="textext-5fd19373-4">
        <g
           style="fill:#000000;fill-opacity:1"
           id="g4804">
          <use
             xlink:href="#textext-5fd19373-1"
             x="223.43201"
             y="134.765"
             id="use4806"
             width="744.09448"
             height="1052.3622" />
        </g>
        <g
           style="fill:#000000;fill-opacity:1"
           id="g4808">
          <use
             xlink:href="#textext-5fd19373-3"
             x="228.071"
             y="131.14999"
             id="use4810"
             width="744.09448"
             height="1052.3622" />
        </g>
      </g>
    </g>
    <g
       id="g5038"
       transform="matrix(4.4901794,0,0,4.4901794,-873.74334,242.92891)"
       ns0:preamble="/home/jalmer/data/stick_school/school_1011/ph_10/presentation/preamble.txt"
       ns0:text="$W^-$">
      <defs
         id="defs5040">
        <g
           id="g5042">
          <symbol
             id="textext-4907ffc1-0"
             overflow="visible"
             style="overflow:visible">
            <path
               id="path5045"
               d=""
               style="stroke:none"
               inkscape:connector-curvature="0" />
          </symbol>
          <symbol
             id="textext-4907ffc1-1"
             overflow="visible"
             style="overflow:visible">
            <path
               id="path5048"
               d="m 9.140625,-5.65625 c 0.25,-0.4375 0.484375,-0.796875 1.125,-0.84375 0.07813,-0.015625 0.1875,-0.015625 0.1875,-0.203125 0,-0.03125 -0.04687,-0.109375 -0.125,-0.109375 -0.234375,0 -0.515625,0.03125 -0.765625,0.03125 -0.34375,0 -0.703125,-0.03125 -1.046875,-0.03125 -0.046875,0 -0.1875,0 -0.1875,0.1875 0,0.109375 0.09375,0.125 0.15625,0.125 0.234375,0.015625 0.59375,0.09375 0.59375,0.390625 0,0.109375 -0.0625,0.1875 -0.140625,0.328125 L 6.25,-1.09375 5.875,-6.03125 c 0,-0.203125 -0.015625,-0.453125 0.703125,-0.46875 0.171875,0 0.265625,0 0.265625,-0.203125 0,-0.09375 -0.109375,-0.109375 -0.140625,-0.109375 -0.40625,0 -0.828125,0.03125 -1.21875,0.03125 -0.234375,0 -0.8125,-0.03125 -1.046875,-0.03125 -0.0625,0 -0.1875,0 -0.1875,0.203125 C 4.25,-6.5 4.34375,-6.5 4.484375,-6.5 4.921875,-6.5 5,-6.4375 5.015625,-6.25 l 0.0625,0.765625 -2.53125,4.390625 -0.375,-5.046875 c 0,-0.125 0,-0.34375 0.765625,-0.359375 0.09375,0 0.203125,0 0.203125,-0.203125 C 3.140625,-6.8125 3.015625,-6.8125 3,-6.8125 c -0.390625,0 -0.8125,0.03125 -1.21875,0.03125 -0.359375,0 -0.71875,-0.03125 -1.046875,-0.03125 -0.0625,0 -0.1875,0 -0.1875,0.1875 0,0.125 0.09375,0.125 0.25,0.125 0.5,0 0.515625,0.09375 0.53125,0.375 l 0.453125,6.078125 c 0,0.1875 0.015625,0.265625 0.15625,0.265625 0.109375,0 0.140625,-0.0625 0.234375,-0.203125 l 2.9375,-5.09375 0.359375,5.03125 C 5.5,0.171875 5.515625,0.21875 5.625,0.21875 c 0.140625,0 0.203125,-0.09375 0.25,-0.1875 l 3.265625,-5.6875 z m 0,0"
               style="stroke:none"
               inkscape:connector-curvature="0" />
          </symbol>
          <symbol
             id="textext-4907ffc1-2"
             overflow="visible"
             style="overflow:visible">
            <path
               id="path5051"
               d=""
               style="stroke:none"
               inkscape:connector-curvature="0" />
          </symbol>
          <symbol
             id="textext-4907ffc1-3"
             overflow="visible"
             style="overflow:visible">
            <path
               id="path5054"
               d="m 5.1875,-1.578125 c 0.109375,0 0.28125,0 0.28125,-0.15625 0,-0.1875 -0.171875,-0.1875 -0.28125,-0.1875 l -4.15625,0 c -0.109375,0 -0.28125,0 -0.28125,0.171875 0,0.171875 0.15625,0.171875 0.28125,0.171875 l 4.15625,0 z m 0,0"
               style="stroke:none"
               inkscape:connector-curvature="0" />
          </symbol>
        </g>
      </defs>
      <g
         id="textext-4907ffc1-4">
        <g
           id="g5057"
           style="fill:#000000;fill-opacity:1">
          <use
             id="use5059"
             y="134.765"
             x="223.43201"
             xlink:href="#textext-4907ffc1-1"
             width="744.09448"
             height="1052.3622" />
        </g>
        <g
           id="g5061"
           style="fill:#000000;fill-opacity:1">
          <use
             id="use5063"
             y="131.14999"
             x="234.22501"
             xlink:href="#textext-4907ffc1-3"
             width="744.09448"
             height="1052.3622" />
        </g>
      </g>
    </g>
  </g>
</svg>
